<?xml version="1.0" standalone="no"?>
<!DOCTYPE svg PUBLIC "-//W3C//DTD SVG 20010904//EN"
 "http://www.w3.org/TR/2001/REC-SVG-20010904/DTD/svg10.dtd">
<svg version="1.0" xmlns="http://www.w3.org/2000/svg"
 width="803.000000pt" height="211.000000pt" viewBox="0 0 803.000000 211.000000"
 preserveAspectRatio="xMidYMid meet">

<g transform="translate(0.000000,211.000000) scale(0.100000,-0.100000)"
fill="#000000" stroke="none">
<path d="M0 1055 l0 -1055 815 0 815 0 0 1055 0 1055 -815 0 -815 0 0 -1055z
m890 829 c14 -7 138 -126 276 -266 270 -272 282 -289 269 -369 -6 -33 -22 -57
-82 -120 l-76 -79 76 -79 c60 -63 76 -87 82 -120 13 -80 1 -97 -269 -369 -138
-140 -264 -261 -280 -269 -35 -18 -114 -20 -147 -3 -33 17 -505 487 -531 528
-23 38 -27 115 -8 153 7 13 42 54 78 91 l66 67 -71 74 c-67 69 -81 92 -85 142
-5 68 -3 71 245 326 133 138 257 262 276 276 55 42 120 48 181 17z"/>
<path d="M757 1827 c-10 -7 -128 -125 -263 -264 -293 -302 -284 -282 -175
-396 l70 -72 168 166 c92 91 183 171 200 178 22 9 49 11 80 6 45 -7 57 -16
221 -178 l174 -172 69 72 c63 67 69 77 69 115 0 42 -2 44 -258 300 -252 252
-259 258 -297 257 -22 0 -48 -6 -58 -12z"/>
<path d="M601 1215 l-166 -164 64 -65 64 -65 84 79 c81 77 137 108 174 96 8
-2 27 -7 43 -11 18 -4 62 -37 111 -85 l81 -80 64 65 65 66 -166 164 c-222 222
-194 222 -418 0z"/>
<path d="M695 959 c-41 -39 -75 -77 -75 -84 0 -7 34 -45 75 -84 68 -64 79 -71
116 -71 38 0 48 6 121 78 l80 77 -81 78 c-73 70 -84 77 -121 77 -36 0 -47 -7
-115 -71z"/>
<path d="M316 930 c-87 -92 -89 -117 -15 -196 54 -57 69 -65 69 -38 0 9 35 52
77 95 l77 79 -64 65 c-36 36 -67 65 -71 65 -4 0 -36 -32 -73 -70z"/>
<path d="M1162 937 l-62 -63 66 -64 c36 -36 72 -80 80 -97 8 -18 18 -33 23
-33 5 0 30 23 55 51 38 42 46 58 46 90 0 34 -8 47 -66 109 -37 38 -69 70 -73
70 -4 0 -35 -28 -69 -63z"/>
<path d="M975 751 c-134 -131 -195 -132 -327 -3 l-79 76 -70 -71 c-63 -62 -71
-74 -71 -108 0 -36 10 -48 168 -207 93 -93 179 -171 191 -174 13 -4 35 -3 50
1 34 8 336 305 354 346 18 45 3 77 -69 151 l-67 68 -80 -79z"/>
<path d="M1700 1055 l0 -1055 3165 0 3165 0 0 1055 0 1055 -3165 0 -3165 0 0
-1055z m727 623 l63 -62 0 -136 c0 -133 -1 -137 -25 -160 l-25 -24 25 -26 c24
-25 25 -31 25 -160 l0 -134 -67 -68 -67 -68 -213 0 -213 0 0 450 0 450 217 0
217 0 63 -62z m659 -5 l63 -68 1 -131 c0 -127 -1 -131 -25 -154 l-25 -24 25
-26 25 -26 0 -202 0 -202 -85 0 -85 0 0 175 0 175 -110 0 -110 0 0 -175 0
-175 -85 0 -85 0 0 450 0 450 216 0 216 0 64 -67z m614 -13 l0 -80 -140 0
-140 0 0 -100 0 -100 115 0 115 0 0 -85 0 -85 -115 0 -115 0 0 -100 0 -100
140 0 140 0 0 -85 0 -85 -225 0 -225 0 0 450 0 450 225 0 225 0 0 -80z m352
-120 c32 -107 63 -212 68 -232 6 -21 14 -38 18 -38 4 0 39 106 77 235 l70 235
93 0 92 0 0 -450 0 -450 -85 0 -85 0 0 173 c0 98 -4 166 -9 157 -5 -8 -21 -69
-36 -135 -14 -66 -31 -137 -36 -158 l-10 -38 -71 3 -71 3 -39 164 c-21 91 -41
167 -43 170 -3 2 -5 -73 -5 -167 l0 -172 -85 0 -85 0 0 450 0 451 92 -3 92 -3
58 -195z m978 120 l0 -79 -142 -3 -143 -3 -3 -97 -3 -98 116 0 115 0 0 -85 0
-85 -115 0 -115 0 0 -100 0 -100 145 0 145 0 0 -85 0 -85 -230 0 -230 0 0 450
0 450 230 0 230 0 0 -80z m402 -163 c59 -133 111 -243 117 -245 8 -3 11 72 11
242 l0 246 80 0 80 0 0 -450 0 -450 -92 0 -93 0 -104 235 c-57 130 -110 243
-117 253 -11 14 -13 -26 -14 -235 l0 -253 -85 0 -85 0 0 450 0 450 98 0 97 0
107 -243z m1018 -207 l0 -450 -80 0 -80 0 0 450 0 450 80 0 80 0 0 -450z m405
210 c59 -132 112 -243 116 -246 5 -3 9 105 9 240 l0 246 85 0 85 0 0 -450 0
-451 -96 3 -96 3 -110 248 c-61 136 -114 247 -119 247 -5 0 -9 -112 -9 -250
l0 -250 -80 0 -80 0 0 450 0 450 94 0 93 0 108 -240z m892 178 l63 -62 0 -88
0 -88 -85 0 -85 0 0 70 0 71 -107 -3 -108 -3 -3 -282 -2 -283 110 0 110 0 0
70 0 70 85 0 85 0 0 -87 0 -87 -67 -68 -67 -68 -145 0 -145 0 -68 67 -68 67 0
315 0 315 67 68 67 68 150 0 150 0 63 -62z m-1567 -383 l0 -85 -175 0 -175 0
0 85 0 85 175 0 175 0 0 -85z m-4120 -700 c16 -19 5 -34 -12 -17 -19 19 -65
14 -94 -11 -20 -18 -28 -35 -32 -75 -4 -47 -2 -54 26 -82 52 -51 117 -36 110
27 -2 22 -9 29 -30 31 -43 5 -33 22 12 22 l40 0 0 -55 c0 -63 -13 -75 -78 -75
-51 0 -88 30 -103 82 -14 55 -4 100 30 137 24 26 37 31 74 31 28 0 49 -6 57
-15z m227 -8 c25 -25 21 -76 -9 -102 l-25 -21 30 -52 c21 -37 25 -52 15 -52
-8 0 -27 24 -44 53 -23 40 -36 53 -57 55 -27 3 -27 2 -27 -52 0 -31 -4 -56
-10 -56 -6 0 -10 49 -10 126 l0 126 60 -4 c38 -3 67 -10 77 -21z m199 -89 c20
-62 39 -119 42 -125 2 -7 -3 -13 -11 -13 -9 0 -18 15 -24 38 -8 36 -10 37 -59
40 l-51 3 -12 -41 c-6 -22 -18 -40 -26 -40 -13 0 10 80 64 223 20 52 38 32 77
-85z m214 99 c33 -16 38 -59 11 -86 l-20 -20 20 -6 c45 -15 40 -92 -7 -114
-14 -6 -47 -11 -74 -11 l-50 0 0 125 0 125 48 0 c26 0 58 -6 72 -13z m205 -54
l29 -68 30 68 c16 37 35 67 42 67 14 0 2 -35 -37 -112 -11 -22 -19 -58 -19
-88 0 -38 -4 -50 -15 -50 -11 0 -15 12 -15 50 0 38 -9 68 -35 120 -39 78 -40
80 -22 80 7 0 26 -30 42 -67z m296 57 c28 -16 49 -63 49 -115 0 -80 -36 -125
-100 -125 -57 0 -85 27 -101 99 -17 78 29 151 96 151 20 0 45 -5 56 -10z m139
-85 c0 -82 3 -98 20 -115 24 -24 57 -26 82 -3 15 13 18 32 18 115 0 80 3 98
15 98 12 0 15 -16 15 -84 0 -131 -20 -166 -94 -166 -65 0 -86 43 -86 176 0 59
3 74 15 74 12 0 15 -17 15 -95z m364 76 c10 -8 16 -29 16 -52 0 -30 -5 -42
-25 -55 l-25 -17 30 -53 c22 -40 26 -54 16 -54 -8 0 -29 25 -46 55 -25 43 -37
55 -56 55 -22 0 -24 -3 -24 -55 0 -42 -3 -55 -15 -55 -13 0 -15 21 -15 126 l0
126 64 -4 c35 -2 71 -10 80 -17z m304 -14 c24 -24 27 -35 27 -92 0 -57 -3 -68
-27 -92 -22 -22 -39 -27 -88 -31 l-60 -4 0 127 0 127 60 -4 c49 -4 66 -9 88
-31z m122 -92 c0 -104 -2 -125 -15 -125 -13 0 -15 21 -15 125 0 104 2 125 15
125 13 0 15 -21 15 -125z m220 110 c17 -21 7 -29 -18 -14 -24 15 -66 5 -92
-21 -31 -31 -28 -123 5 -155 25 -26 78 -34 90 -15 3 6 13 10 22 10 14 0 14 -3
-2 -20 -37 -41 -123 -20 -151 38 -26 55 -15 128 25 164 36 32 100 39 121 13z
m100 -45 c0 -33 3 -60 8 -60 4 0 29 27 55 60 27 33 56 60 64 60 9 0 2 -15 -21
-44 -20 -23 -36 -48 -36 -55 0 -6 11 -28 23 -49 45 -71 59 -102 44 -102 -7 0
-30 30 -51 66 l-38 66 -24 -23 c-18 -17 -24 -33 -24 -66 0 -32 -4 -43 -15 -43
-13 0 -15 21 -15 125 0 104 2 125 15 125 12 0 15 -13 15 -60z m396 -52 c20
-62 39 -119 42 -125 2 -7 -2 -13 -10 -13 -9 0 -20 17 -27 40 -12 39 -12 40
-60 40 -47 0 -48 -1 -60 -40 -6 -22 -18 -40 -26 -40 -10 0 -2 33 28 125 54
163 62 164 113 13z m174 12 c30 -55 58 -100 61 -100 3 0 4 45 1 100 -4 88 -3
100 12 100 14 0 16 -16 16 -126 0 -157 -9 -159 -88 -20 l-57 100 -3 -102 c-2
-82 -6 -102 -17 -102 -12 0 -15 22 -15 125 0 112 2 125 18 125 11 0 35 -33 72
-100z m308 67 c24 -24 27 -35 27 -92 0 -57 -3 -68 -27 -92 -22 -22 -39 -27
-88 -31 l-60 -4 0 127 0 127 60 -4 c49 -4 66 -9 88 -31z m287 19 c41 -18 55
-43 57 -101 1 -91 -39 -135 -127 -135 l-45 0 0 125 0 125 40 0 c22 0 56 -6 75
-14z m267 3 c46 -25 62 -123 28 -188 -21 -43 -35 -51 -87 -51 -98 0 -138 165
-56 230 28 22 82 26 115 9z m138 -82 c0 -107 13 -137 60 -137 47 0 60 30 60
137 0 76 3 93 15 93 12 0 15 -15 15 -74 0 -133 -21 -176 -86 -176 -74 0 -94
35 -94 166 0 68 3 84 15 84 12 0 15 -17 15 -93z m334 83 c14 -5 30 -19 36 -31
10 -18 8 -26 -9 -49 l-20 -28 24 -16 c17 -11 25 -26 25 -45 0 -44 -31 -65
-106 -69 l-64 -4 0 126 0 126 44 0 c25 0 56 -4 70 -10z m138 -102 l3 -113 53
-3 c75 -4 65 -22 -13 -22 l-65 0 0 125 c0 158 18 168 22 13z m298 102 c0 -5
-25 -10 -55 -10 l-55 0 0 -45 0 -45 50 0 c28 0 50 -4 50 -10 0 -5 -22 -10 -50
-10 l-50 0 0 -50 0 -50 60 0 c33 0 60 -4 60 -10 0 -6 -32 -10 -75 -10 l-75 0
0 125 0 125 70 0 c40 0 70 -4 70 -10z m290 -5 c16 -19 5 -34 -12 -17 -21 21
-58 13 -89 -17 -75 -76 4 -223 91 -169 26 16 39 2 14 -17 -26 -19 -84 -19
-113 1 -27 19 -51 71 -51 111 0 38 32 95 61 110 33 17 84 16 99 -2z m100 -100
l0 -115 55 0 c30 0 55 -4 55 -10 0 -6 -28 -10 -65 -10 l-65 0 0 125 c0 77 4
125 10 125 6 0 10 -45 10 -115z m190 -10 c0 -104 -2 -125 -15 -125 -13 0 -15
21 -15 125 0 104 2 125 15 125 13 0 15 -21 15 -125z m220 110 c16 -19 5 -34
-12 -17 -15 15 -40 15 -71 1 -59 -27 -64 -143 -8 -186 19 -15 67 -17 76 -3 3
6 13 10 22 10 14 0 14 -3 -2 -20 -22 -25 -81 -27 -114 -4 -66 47 -66 172 1
218 29 20 92 21 108 1z m100 -45 c0 -33 4 -60 8 -60 5 0 31 27 57 60 26 33 55
60 63 60 9 0 2 -15 -22 -44 -20 -24 -36 -48 -36 -52 0 -4 18 -38 40 -76 45
-78 45 -78 27 -78 -7 0 -27 27 -45 60 -18 33 -37 62 -42 65 -17 10 -50 -47
-50 -86 0 -22 -4 -39 -10 -39 -6 0 -10 48 -10 125 0 77 4 125 10 125 6 0 10
-27 10 -60z"/>
<path d="M2100 1480 l0 -100 110 0 111 0 -3 98 -3 97 -107 3 -108 3 0 -101z"/>
<path d="M2100 1110 l0 -100 110 0 110 0 0 100 0 100 -110 0 -110 0 0 -100z"/>
<path d="M2760 1465 l0 -116 108 3 107 3 0 110 0 110 -107 3 -108 3 0 -116z"/>
<path d="M2170 540 l0 -50 36 0 c48 0 74 16 74 45 0 35 -26 55 -71 55 l-39 0
0 -50z"/>
<path d="M2427 573 c-3 -5 -12 -32 -20 -60 l-16 -53 40 0 c21 0 39 3 39 6 0
12 -31 114 -35 114 -2 0 -6 -3 -8 -7z"/>
<path d="M2600 545 c0 -44 1 -45 31 -45 43 0 69 17 69 45 0 28 -26 45 -69 45
-30 0 -31 -1 -31 -45z"/>
<path d="M2600 430 l0 -50 38 0 c47 0 82 24 82 55 0 30 -26 45 -79 45 l-41 0
0 -50z"/>
<path d="M3103 566 c-24 -21 -28 -31 -28 -79 0 -45 5 -60 24 -81 82 -87 175
77 95 165 -23 26 -57 24 -91 -5z"/>
<path d="M3590 540 l0 -50 39 0 c43 0 71 20 71 50 0 26 -38 50 -77 50 -33 0
-33 0 -33 -50z"/>
<path d="M3890 485 l0 -105 26 0 c61 0 93 36 94 107 0 55 -13 77 -57 94 -60
23 -63 19 -63 -96z"/>
<path d="M4771 529 c-7 -23 -15 -47 -18 -55 -4 -10 4 -14 31 -14 31 0 36 3 36
24 0 29 -19 86 -29 86 -4 0 -13 -18 -20 -41z"/>
<path d="M5210 486 c0 -117 1 -119 67 -96 35 13 53 46 53 100 0 50 -32 87 -82
96 l-38 6 0 -106z"/>
<path d="M5527 583 c-4 -3 -7 -51 -7 -106 l0 -100 42 6 c49 7 74 32 84 83 8
45 -11 91 -47 109 -30 16 -61 19 -72 8z"/>
<path d="M5789 577 c-47 -36 -53 -119 -13 -166 32 -38 66 -40 99 -6 21 20 25
34 25 80 0 46 -4 60 -25 80 -26 27 -61 32 -86 12z"/>
<path d="M6270 545 c0 -44 1 -45 31 -45 43 0 69 17 69 45 0 28 -26 45 -69 45
-30 0 -31 -1 -31 -45z"/>
<path d="M6270 430 c0 -49 1 -50 29 -50 69 0 104 37 74 79 -11 16 -25 21 -59
21 l-44 0 0 -50z"/>
</g>
</svg>
